<svg width="320" height="88" viewBox="0 0 320 88" fill="none" xmlns="http://www.w3.org/2000/svg" role="img" aria-labelledby="title desc">
  <title id="title">VaultShop logo</title>
  <desc id="desc">A shopping bag with a vault dial next to the VaultShop wordmark.</desc>
  <g transform="translate(18 12)">
    <path d="M18 24C18 13.5066 26.5066 5 37 5C47.4934 5 56 13.5066 56 24" stroke="#1a2a4a" stroke-width="5" stroke-linecap="round"/>
    <path d="M10 22H64L60.2 68H13.8L10 22Z" fill="#1a2a4a"/>
    <path d="M16.5 28H57.5L54.8 62H19.2L16.5 28Z" fill="#0d1625"/>
    <circle cx="37" cy="45" r="13" fill="#f7f8fa"/>
    <circle cx="37" cy="45" r="5.5" fill="#d4a017"/>
    <path d="M37 32V37" stroke="#1a2a4a" stroke-width="3" stroke-linecap="round"/>
    <path d="M37 53V58" stroke="#1a2a4a" stroke-width="3" stroke-linecap="round"/>
    <path d="M24 45H29" stroke="#1a2a4a" stroke-width="3" stroke-linecap="round"/>
    <path d="M45 45H50" stroke="#1a2a4a" stroke-width="3" stroke-linecap="round"/>
    <path d="M27.8 35.8L31.4 39.4" stroke="#1a2a4a" stroke-width="3" stroke-linecap="round"/>
    <path d="M42.6 50.6L46.2 54.2" stroke="#1a2a4a" stroke-width="3" stroke-linecap="round"/>
    <path d="M46.2 35.8L42.6 39.4" stroke="#1a2a4a" stroke-width="3" stroke-linecap="round"/>
    <path d="M31.4 50.6L27.8 54.2" stroke="#1a2a4a" stroke-width="3" stroke-linecap="round"/>
  </g>
  <text x="96" y="45" fill="#1a2a4a" font-family="Georgia, 'Times New Roman', serif" font-size="31" font-weight="700" letter-spacing="-0.8">Vault<tspan fill="#d4a017">Shop</tspan></text>
  <text x="98" y="64" fill="#1e2030" font-family="Verdana, sans-serif" font-size="10" letter-spacing="2.4">ONLINE STORE</text>
</svg>
