<svg width="1200" height="630" viewBox="0 0 1200 630" fill="none" xmlns="http://www.w3.org/2000/svg" role="img" aria-labelledby="title desc">
  <title id="title">VaultShop social preview</title>
  <desc id="desc">VaultShop wordmark and vault shopping bag icon on a warm cream background.</desc>
  <rect width="1200" height="630" fill="#F8F3E8"/>
  <circle cx="986" cy="126" r="220" fill="#D6A84F" fill-opacity="0.18"/>
  <circle cx="120" cy="550" r="260" fill="#111827" fill-opacity="0.07"/>
  <g transform="translate(120 160) scale(2.7)">
    <path d="M28 35C28 23.9543 36.9543 15 48 15C59.0457 15 68 23.9543 68 35" stroke="#111827" stroke-width="6" stroke-linecap="round"/>
    <path d="M20 33H76L72 80H24L20 33Z" fill="#111827"/>
    <path d="M27 40H69L66.2 73H29.8L27 40Z" fill="#1F2937"/>
    <circle cx="48" cy="57" r="14" fill="#F8F3E8"/>
    <circle cx="48" cy="57" r="6" fill="#D6A84F"/>
    <path d="M48 43V49" stroke="#111827" stroke-width="3.5" stroke-linecap="round"/>
    <path d="M48 65V71" stroke="#111827" stroke-width="3.5" stroke-linecap="round"/>
    <path d="M34 57H40" stroke="#111827" stroke-width="3.5" stroke-linecap="round"/>
    <path d="M56 57H62" stroke="#111827" stroke-width="3.5" stroke-linecap="round"/>
  </g>
  <text x="420" y="285" fill="#111827" font-family="Georgia, 'Times New Roman', serif" font-size="96" font-weight="700" letter-spacing="-3">Vault<tspan fill="#D6A84F">Shop</tspan></text>
  <text x="428" y="348" fill="#4B5563" font-family="Verdana, sans-serif" font-size="25" letter-spacing="7">SELF-HOSTED ASP.NET CORE COMMERCE</text>
  <text x="430" y="420" fill="#1F2937" font-family="Verdana, sans-serif" font-size="27">PostgreSQL · Docker Compose · MinIO · Stripe · Nginx HTTPS</text>
</svg>
